<svg xmlns:dc="http://purl.org/dc/elements/1.1/" xmlns:cc="http://creativecommons.org/ns#" xmlns:rdf="http://www.w3.org/1999/02/22-rdf-syntax-ns#" xmlns:svg="http://www.w3.org/2000/svg" xmlns="http://www.w3.org/2000/svg" xmlns:sodipodi="http://sodipodi.sourceforge.net/DTD/sodipodi-0.dtd" xmlns:inkscape="http://www.inkscape.org/namespaces/inkscape" version="1.1" x="0px" y="0px" viewBox="0 0 100 125"><g transform="translate(0,-952.36218)"><path style="color:#000000;enable-background:accumulate;" d="M 12 14 C 9.784 14 8 15.78404 8 18 L 8 68 C 8 70.2159 9.784 72 12 72 L 88 72 C 90.216 72 92 70.2159 92 68 L 92 18 C 92 15.78404 90.216 14 88 14 L 12 14 z M 50 27 L 78 38 L 50 49 L 22 38 L 50 27 z M 32 44.0625 L 49.28125 50.84375 A 2.0001999 2.0001999 0 0 0 50.71875 50.84375 L 68 44.0625 L 68 53 C 68 55.7518 59.972 59 50 59 C 40.028 59 32 55.7518 32 53 L 32 44.0625 z M 43 74 L 43 82 L 57 82 L 57 74 L 43 74 z M 37 84 C 35.89543 84 35 84.8954 35 86 C 35 87.1046 35.89543 88 37 88 L 63 88 C 64.10457 88 65 87.1046 65 86 C 65 84.8954 64.10457 84 63 84 L 37 84 z " transform="translate(0,952.36218)" fill="#000000" stroke="none" marker="none" visibility="visible" display="inline" overflow="visible"/></g><text x="0" y="115" fill="#000000" font-size="5px" font-weight="bold" font-family="'Helvetica Neue', Helvetica, Arial-Unicode, Arial, Sans-serif">Created by Rockicon</text><text x="0" y="120" fill="#000000" font-size="5px" font-weight="bold" font-family="'Helvetica Neue', Helvetica, Arial-Unicode, Arial, Sans-serif">from the Noun Project</text></svg>