<svg xmlns="http://www.w3.org/2000/svg" xmlns:xlink="http://www.w3.org/1999/xlink" version="1.1" x="0px" y="0px" viewBox="0 0 100 125" style="enable-background:new 0 0 100 100;" xml:space="preserve"><path d="M27.2,40.8H15.1c-1.3,0-2.3-1.1-2.3-2.3V27.9c0-1.3,1.1-2.3,2.3-2.3h12.1c1.3,0,2.3,1.1,2.3,2.3v10.5  c0.1,0.6-0.2,1.2-0.6,1.7C28.5,40.6,27.8,40.8,27.2,40.8z M15.1,26.6c-0.7,0-1.4,0.5-1.4,1.4v10.6c0,0.7,0.5,1.4,1.4,1.4h12.1  c0.4,0,0.8-0.2,1-0.5c0.2-0.3,0.4-0.6,0.3-1l0-10.5c0-0.7-0.5-1.4-1.4-1.4H15.1z"/><path d="M52.9,30.2h-20c-0.3,0-0.5-0.2-0.5-0.5s0.2-0.5,0.5-0.5h20c0.3,0,0.5,0.2,0.5,0.5S53.1,30.2,52.9,30.2z"/><path d="M52.9,37.7h-20c-0.3,0-0.5-0.2-0.5-0.5s0.2-0.5,0.5-0.5h20c0.3,0,0.5,0.2,0.5,0.5S53.1,37.7,52.9,37.7z"/><path d="M49.8,45.3H13.2c-0.3,0-0.5-0.2-0.5-0.5s0.2-0.5,0.5-0.5h36.6c0.3,0,0.5,0.2,0.5,0.5S50.1,45.3,49.8,45.3z"/><path d="M43.3,53H13.2c-0.3,0-0.5-0.2-0.5-0.5c0-0.3,0.2-0.5,0.5-0.5h30.1c0.3,0,0.5,0.2,0.5,0.5C43.8,52.7,43.6,53,43.3,53z"/><path d="M39.7,60.5H13.2c-0.3,0-0.5-0.2-0.5-0.5s0.2-0.5,0.5-0.5h26.5c0.3,0,0.5,0.2,0.5,0.5S39.9,60.5,39.7,60.5z"/><path d="M54.8,49.4h-8.9c-0.3,0-0.5-0.2-0.5-0.5s0.2-0.5,0.5-0.5h8.9c0.3,0,0.5,0.2,0.5,0.5S55.1,49.4,54.8,49.4z"/><path d="M54.8,57.1H41.4c-0.3,0-0.5-0.2-0.5-0.5s0.2-0.5,0.5-0.5h13.4c0.3,0,0.5,0.2,0.5,0.5S55.1,57.1,54.8,57.1z"/><path d="M54.8,64.7H39.7c-0.3,0-0.5-0.2-0.5-0.5c0-0.3,0.2-0.5,0.5-0.5h15.1c0.3,0,0.5,0.2,0.5,0.5C55.3,64.5,55.1,64.7,54.8,64.7z"/><path d="M43.6,82.3H9.1c-3.9,0-7-3.2-7-7V10.8c0-3.9,3.2-7,7-7h36c0.3,0,0.5,0.2,0.5,0.5V22l17.8-0.1c0.2,0,0.3,0.1,0.3,0.1  c0.1,0.1,0.1,0.2,0.1,0.3v16.2c0,0.3-0.2,0.5-0.5,0.5s-0.5-0.2-0.5-0.5V22.9L45.1,23c0,0,0,0,0,0c-0.1,0-0.3-0.1-0.3-0.1  c-0.1-0.1-0.1-0.2-0.1-0.3V4.8H9.1C5.7,4.8,3,7.5,3,10.8v64.4c0,3.3,2.7,6.1,6.1,6.1h34.5c0.3,0,0.5,0.2,0.5,0.5  C44.1,82.1,43.9,82.3,43.6,82.3z"/><path d="M63.4,23c-0.1,0-0.2,0-0.3-0.1L44.8,4.6c-0.2-0.2-0.2-0.5,0-0.7c0.2-0.2,0.5-0.2,0.7,0l18.3,18.2c0.2,0.2,0.2,0.5,0,0.7  C63.7,22.9,63.6,23,63.4,23z"/><g><path d="M59.6,85.1H45.7c-0.3,0-0.5-0.2-0.5-0.5s0.2-0.5,0.5-0.5h13.9c3.3,0,6.1-2.7,6.1-6.1V38.9c0-0.3,0.2-0.5,0.5-0.5   s0.5,0.2,0.5,0.5v39.2C66.7,82,63.5,85.1,59.6,85.1z"/></g><g><path d="M98.5,98c-0.1,0-0.3,0-0.3-0.1l-10-10c-0.2-0.2-0.2-0.5,0-0.7c0.2-0.2,0.5-0.2,0.7,0l10,10c0.2,0.2,0.2,0.5,0,0.7   C98.8,98,98.6,98,98.5,98z"/></g><g><path d="M67.8,95.8C51.9,95.8,39,82.8,39,66.9s12.9-28.8,28.8-28.8c15.9,0,28.8,12.9,28.8,28.8S83.7,95.8,67.8,95.8z M67.8,39.1   C52.5,39.1,40,51.6,40,66.9s12.5,27.9,27.9,27.9s27.9-12.5,27.9-27.9S83.2,39.1,67.8,39.1z"/></g><g><path d="M76.9,88.7c-0.2,0-0.4-0.1-0.4-0.3c-0.1-0.2,0-0.5,0.3-0.6c8.4-3.5,13.8-11.7,13.8-20.9c0-5-1.6-9.7-4.5-13.6   c-0.2-0.2-0.1-0.5,0.1-0.7c0.2-0.2,0.5-0.1,0.7,0.1c3.1,4.1,4.7,9,4.7,14.2c0,9.5-5.6,18.1-14.4,21.8C77,88.7,77,88.7,76.9,88.7z"/></g><text x="0" y="115" fill="#000000" font-size="5px" font-weight="bold" font-family="'Helvetica Neue', Helvetica, Arial-Unicode, Arial, Sans-serif">Created by Renuka S Kulkarni</text><text x="0" y="120" fill="#000000" font-size="5px" font-weight="bold" font-family="'Helvetica Neue', Helvetica, Arial-Unicode, Arial, Sans-serif">from the Noun Project</text></svg>