<svg xmlns:dc="http://purl.org/dc/elements/1.1/" xmlns:cc="http://creativecommons.org/ns#" xmlns:rdf="http://www.w3.org/1999/02/22-rdf-syntax-ns#" xmlns:svg="http://www.w3.org/2000/svg" xmlns="http://www.w3.org/2000/svg" xmlns:sodipodi="http://sodipodi.sourceforge.net/DTD/sodipodi-0.dtd" xmlns:inkscape="http://www.inkscape.org/namespaces/inkscape" version="1.1" x="0px" y="0px" viewBox="0 0 100 125"><g transform="translate(0,-952.36218)"><path style="font-size:medium;font-style:normal;font-variant:normal;font-weight:normal;font-stretch:normal;text-indent:0;text-align:start;text-decoration:none;line-height:normal;letter-spacing:normal;word-spacing:normal;text-transform:none;direction:ltr;block-progression:tb;writing-mode:lr-tb;text-anchor:start;baseline-shift:baseline;opacity:1;color:#000000;fill:#000000;fill-opacity:1;stroke:none;stroke-width:4;marker:none;visibility:visible;display:inline;overflow:visible;enable-background:accumulate;font-family:Sans;-inkscape-font-specification:Sans" d="M 35.03125,11 C 30.060712,11 26,15.06072 26,20.03125 L 26,23 15.03125,23 C 10.060716,23 6,27.06072 6,32.03125 l 0,29.9375 C 6,66.93925 10.060716,71 15.03125,71 L 16,71 16,87 c 0.0064,0.780799 0.515115,1.558177 1.236852,1.856142 C 17.478461,88.955892 17.739176,89 17.999991,89 c 0.524034,0 1.036836,-0.228593 1.406259,-0.59375 L 36.8125,71 64.96875,71 c 2.787791,0 5.30927,-1.251181 6.96875,-3.25 l 8.65625,8.65625 c 0.555324,0.54891 1.447661,0.724257 2.169398,0.426292 C 83.484885,76.534577 83.993639,75.780799 84,75 l 0,-16 0.96875,0 C 89.939284,59 94,54.93925 94,49.96875 l 0,-29.9375 C 94,15.06072 89.939288,11 84.96875,11 z m 0,4 49.9375,0 C 87.798412,15 90,17.2016 90,20.03125 l 0,29.9375 C 90,52.79835 87.798416,55 84.96875,55 L 82,55 c -1.047169,1.05e-4 -1.999895,0.952831 -2,2 L 80,70.15625 73.78125,63.9375 C 73.923598,63.302967 74,62.644884 74,61.96875 l 0,-29.9375 C 74,27.06072 69.939288,23 64.96875,23 L 30,23 30,20.03125 C 30,17.20158 32.201588,15 35.03125,15 z m -20,12 49.9375,0 C 67.798412,27 70,29.20158 70,32.03125 l 0,29.9375 C 70,64.79835 67.798416,67 64.96875,67 L 36,67 c -0.517756,-0.004 -1.034102,0.202508 -1.40625,0.5625 L 20,82.15625 20,69 c -1.05e-4,-1.047169 -0.952831,-1.999895 -2,-2 l -2.96875,0 C 12.201584,67 10,64.79835 10,61.96875 l 0,-29.9375 C 10,29.20158 12.201584,27 15.03125,27 z M 26,43 c -2.2091,0 -4,1.7909 -4,4 0,2.2092 1.7909,4 4,4 2.2091,0 4,-1.7908 4,-4 0,-2.2091 -1.7909,-4 -4,-4 z m 14,0 c -2.2091,0 -4,1.7909 -4,4 0,2.20922 1.7909,4 4,4 2.2091,0 4,-1.79078 4,-4 0,-2.2091 -1.7909,-4 -4,-4 z m 14,0 c -2.2091,0 -4,1.7909 -4,4 0,2.2092 1.7909,4 4,4 2.2092,0 4,-1.7908 4,-4 0,-2.2091 -1.7908,-4 -4,-4 z" transform="translate(0,952.36218)"/></g><text x="0" y="115" fill="#000000" font-size="5px" font-weight="bold" font-family="'Helvetica Neue', Helvetica, Arial-Unicode, Arial, Sans-serif">Created by romzicon</text><text x="0" y="120" fill="#000000" font-size="5px" font-weight="bold" font-family="'Helvetica Neue', Helvetica, Arial-Unicode, Arial, Sans-serif">from the Noun Project</text></svg>